{
	"asset":{
		"generator":"Khronos glTF Blender I/O v3.6.27",
		"version":"2.0"
	},
	"extensionsUsed":[
		"KHR_materials_transmission",
		"KHR_materials_specular"
	],
	"scene":0,
	"scenes":[
		{
			"name":"Scene",
			"nodes":[
				0
			]
		}
	],
	"nodes":[
		{
			"mesh":0,
			"name":"teapot",
			"rotation":[
				0.7071068286895752,
				0,
				0,
				0.7071068286895752
			]
		}
	],
	"materials":[
		{
			"doubleSided":true,
			"extensions":{
				"KHR_materials_transmission":{
					"transmissionFactor":1
				},
				"KHR_materials_specular":{
					"specularColorFactor":[
						1,
						1,
						1
					]
				}
			},
			"name":"default",
			"pbrMetallicRoughness":{
				"baseColorTexture":{
					"index":0
				},
				"metallicFactor":0,
				"roughnessFactor":0.8999999761581421
			}
		}
	],
	"meshes":[
		{
			"name":"teapot",
			"primitives":[
				{
					"attributes":{
						"POSITION":0,
						"NORMAL":1,
						"TEXCOORD_0":2
					},
					"indices":3,
					"material":0
				}
			]
		}
	],
	"textures":[
		{
			"sampler":0,
			"source":0
		}
	],
	"images":[
		{
			"bufferView":4,
			"mimeType":"image/png",
			"name":"default"
		}
	],
	"accessors":[
		{
			"bufferView":0,
			"componentType":5126,
			"count":31614,
			"max":[
				18.26645278930664,
				10.638455390930176,
				0
			],
			"min":[
				-15.957682609558105,
				-10.638455390930176,
				-17.536754608154297
			],
			"type":"VEC3"
		},
		{
			"bufferView":1,
			"componentType":5126,
			"count":31614,
			"type":"VEC3"
		},
		{
			"bufferView":2,
			"componentType":5126,
			"count":31614,
			"type":"VEC2"
		},
		{
			"bufferView":3,
			"componentType":5123,
			"count":47112,
			"type":"SCALAR"
		}
	],
	"bufferViews":[
		{
			"buffer":0,
			"byteLength":379368,
			"byteOffset":0,
			"target":34962
		},
		{
			"buffer":0,
			"byteLength":379368,
			"byteOffset":379368,
			"target":34962
		},
		{
			"buffer":0,
			"byteLength":252912,
			"byteOffset":758736,
			"target":34962
		},
		{
			"buffer":0,
			"byteLength":94224,
			"byteOffset":1011648,
			"target":34963
		},
		{
			"buffer":0,
			"byteLength":113,
			"byteOffset":1105872
		}
	],
	"samplers":[
		{
			"magFilter":9729,
			"minFilter":9987
		}
	],
	"buffers":[
		{
			"byteLength":1105988,
			"uri":"data:application/octet-stream;base64,"
		}
	]
}
